# xmcd
#
# Track frame offsets: 
#        150
#        21636
#        38592
#        60465
#        79119
#        93689
#        120079
#        160288
#        192762
#        210822
#
# Disc length: 3414 seconds
#
# Revision: 0
# Processed by: cddbd v1.5.2PL0 Copyright (c) Steve Scherf et al.
# Submitted via: ExactAudioCopy v0.95b3
#
DISCID=740d540a
DTITLE=Led Zeppelin  - Studio Sessions Ultimate [Disc 12] 
DYEAR=1900
DGENRE=
TTITLE0=Fire
TTITLE1=Carouselambra
TTITLE2=Carouselambra
TTITLE3=Carouselambra
TTITLE4=White Summer
TTITLE5=White Summer - Black Mountain Side
TTITLE6=Kashmir
TTITLE7=Achilles Last Stand
TTITLE8=Achilles Last Stand
TTITLE9=Stairway To Heaven
EXTD=
EXTT0=
EXTT1=
EXTT2=
EXTT3=
EXTT4=
EXTT5=
EXTT6=
EXTT7=
EXTT8=
EXTT9=
PLAYORDER=
